<mxfile host="app.diagrams.net" agent="Mozilla/5.0 (Macintosh; Intel Mac OS X 10_15_7) AppleWebKit/605.1.15 (KHTML, like Gecko) Version/17.6 Safari/605.1.15" version="24.7.12">
  <diagram name="Page-1" id="OWxGkYmRviRfJUlIrZ1o">
    <mxGraphModel dx="708" dy="477" grid="1" gridSize="10" guides="1" tooltips="1" connect="1" arrows="1" fold="1" page="1" pageScale="1" pageWidth="827" pageHeight="1169" math="0" shadow="0">
      <root>
        <mxCell id="0" />
        <mxCell id="1" parent="0" />
        <mxCell id="MHxuqxCIDy7DKhvqpXYc-1" value="&lt;b&gt;L1&lt;/b&gt;" style="ellipse;whiteSpace=wrap;html=1;aspect=fixed;" vertex="1" parent="1">
          <mxGeometry x="160" y="80" width="40" height="40" as="geometry" />
        </mxCell>
        <mxCell id="MHxuqxCIDy7DKhvqpXYc-2" value="" style="ellipse;whiteSpace=wrap;html=1;aspect=fixed;fillColor=#d5e8d4;strokeColor=#82b366;" vertex="1" parent="1">
          <mxGeometry x="160" y="130" width="40" height="40" as="geometry" />
        </mxCell>
        <mxCell id="MHxuqxCIDy7DKhvqpXYc-3" value="" style="ellipse;whiteSpace=wrap;html=1;aspect=fixed;fillColor=#d5e8d4;strokeColor=#82b366;" vertex="1" parent="1">
          <mxGeometry x="160" y="180" width="40" height="40" as="geometry" />
        </mxCell>
        <mxCell id="MHxuqxCIDy7DKhvqpXYc-4" value="" style="ellipse;whiteSpace=wrap;html=1;aspect=fixed;fillColor=#ffe6cc;strokeColor=#d79b00;" vertex="1" parent="1">
          <mxGeometry x="160" y="230" width="40" height="40" as="geometry" />
        </mxCell>
        <mxCell id="MHxuqxCIDy7DKhvqpXYc-5" value="" style="ellipse;whiteSpace=wrap;html=1;aspect=fixed;fillColor=#d5e8d4;strokeColor=#82b366;" vertex="1" parent="1">
          <mxGeometry x="240" y="80" width="40" height="40" as="geometry" />
        </mxCell>
        <mxCell id="MHxuqxCIDy7DKhvqpXYc-6" value="" style="ellipse;whiteSpace=wrap;html=1;aspect=fixed;fillColor=#d5e8d4;strokeColor=#82b366;" vertex="1" parent="1">
          <mxGeometry x="240" y="130" width="40" height="40" as="geometry" />
        </mxCell>
        <mxCell id="MHxuqxCIDy7DKhvqpXYc-7" value="" style="ellipse;whiteSpace=wrap;html=1;aspect=fixed;fillColor=#d5e8d4;strokeColor=#82b366;" vertex="1" parent="1">
          <mxGeometry x="240" y="180" width="40" height="40" as="geometry" />
        </mxCell>
        <mxCell id="MHxuqxCIDy7DKhvqpXYc-8" value="" style="ellipse;whiteSpace=wrap;html=1;aspect=fixed;fillColor=#ffe6cc;strokeColor=#d79b00;" vertex="1" parent="1">
          <mxGeometry x="240" y="230" width="40" height="40" as="geometry" />
        </mxCell>
        <mxCell id="MHxuqxCIDy7DKhvqpXYc-9" value="" style="ellipse;whiteSpace=wrap;html=1;aspect=fixed;fillColor=#dae8fc;strokeColor=#6c8ebf;" vertex="1" parent="1">
          <mxGeometry x="320" y="80" width="40" height="40" as="geometry" />
        </mxCell>
        <mxCell id="MHxuqxCIDy7DKhvqpXYc-10" value="&lt;b&gt;L2&lt;/b&gt;" style="ellipse;whiteSpace=wrap;html=1;aspect=fixed;fillColor=#d5e8d4;strokeColor=#82b366;" vertex="1" parent="1">
          <mxGeometry x="320" y="130" width="40" height="40" as="geometry" />
        </mxCell>
        <mxCell id="MHxuqxCIDy7DKhvqpXYc-11" value="" style="ellipse;whiteSpace=wrap;html=1;aspect=fixed;fillColor=#dae8fc;strokeColor=#6c8ebf;" vertex="1" parent="1">
          <mxGeometry x="320" y="180" width="40" height="40" as="geometry" />
        </mxCell>
        <mxCell id="MHxuqxCIDy7DKhvqpXYc-13" value="" style="ellipse;whiteSpace=wrap;html=1;aspect=fixed;fillColor=#dae8fc;strokeColor=#6c8ebf;" vertex="1" parent="1">
          <mxGeometry x="400" y="80" width="40" height="40" as="geometry" />
        </mxCell>
        <mxCell id="MHxuqxCIDy7DKhvqpXYc-14" value="" style="ellipse;whiteSpace=wrap;html=1;aspect=fixed;fillColor=#dae8fc;strokeColor=#6c8ebf;" vertex="1" parent="1">
          <mxGeometry x="400" y="130" width="40" height="40" as="geometry" />
        </mxCell>
        <mxCell id="MHxuqxCIDy7DKhvqpXYc-15" value="" style="ellipse;whiteSpace=wrap;html=1;aspect=fixed;fillColor=#dae8fc;strokeColor=#6c8ebf;" vertex="1" parent="1">
          <mxGeometry x="400" y="180" width="40" height="40" as="geometry" />
        </mxCell>
        <mxCell id="MHxuqxCIDy7DKhvqpXYc-16" value="" style="ellipse;whiteSpace=wrap;html=1;aspect=fixed;" vertex="1" parent="1">
          <mxGeometry x="400" y="230" width="40" height="40" as="geometry" />
        </mxCell>
        <mxCell id="MHxuqxCIDy7DKhvqpXYc-17" value="" style="ellipse;whiteSpace=wrap;html=1;aspect=fixed;" vertex="1" parent="1">
          <mxGeometry x="480" y="80" width="40" height="40" as="geometry" />
        </mxCell>
        <mxCell id="MHxuqxCIDy7DKhvqpXYc-18" value="" style="ellipse;whiteSpace=wrap;html=1;aspect=fixed;" vertex="1" parent="1">
          <mxGeometry x="480" y="130" width="40" height="40" as="geometry" />
        </mxCell>
        <mxCell id="MHxuqxCIDy7DKhvqpXYc-19" value="&lt;b&gt;L3&lt;/b&gt;" style="ellipse;whiteSpace=wrap;html=1;aspect=fixed;fillColor=#dae8fc;strokeColor=#6c8ebf;" vertex="1" parent="1">
          <mxGeometry x="480" y="180" width="40" height="40" as="geometry" />
        </mxCell>
        <mxCell id="MHxuqxCIDy7DKhvqpXYc-21" value="" style="ellipse;whiteSpace=wrap;html=1;aspect=fixed;" vertex="1" parent="1">
          <mxGeometry x="560" y="80" width="40" height="40" as="geometry" />
        </mxCell>
        <mxCell id="MHxuqxCIDy7DKhvqpXYc-22" value="" style="ellipse;whiteSpace=wrap;html=1;aspect=fixed;" vertex="1" parent="1">
          <mxGeometry x="560" y="130" width="40" height="40" as="geometry" />
        </mxCell>
        <mxCell id="MHxuqxCIDy7DKhvqpXYc-23" value="" style="ellipse;whiteSpace=wrap;html=1;aspect=fixed;" vertex="1" parent="1">
          <mxGeometry x="560" y="180" width="40" height="40" as="geometry" />
        </mxCell>
        <mxCell id="MHxuqxCIDy7DKhvqpXYc-25" value="" style="ellipse;whiteSpace=wrap;html=1;aspect=fixed;fillColor=#ffe6cc;strokeColor=#d79b00;" vertex="1" parent="1">
          <mxGeometry x="160" y="330" width="40" height="40" as="geometry" />
        </mxCell>
        <mxCell id="MHxuqxCIDy7DKhvqpXYc-57" style="rounded=0;orthogonalLoop=1;jettySize=auto;html=1;entryX=1;entryY=0.5;entryDx=0;entryDy=0;endArrow=blockThin;endFill=1;" edge="1" parent="1" source="MHxuqxCIDy7DKhvqpXYc-27" target="MHxuqxCIDy7DKhvqpXYc-8">
          <mxGeometry relative="1" as="geometry" />
        </mxCell>
        <mxCell id="MHxuqxCIDy7DKhvqpXYc-58" style="rounded=0;orthogonalLoop=1;jettySize=auto;html=1;entryX=1;entryY=0.5;entryDx=0;entryDy=0;endArrow=blockThin;endFill=1;" edge="1" parent="1" source="MHxuqxCIDy7DKhvqpXYc-27" target="MHxuqxCIDy7DKhvqpXYc-7">
          <mxGeometry relative="1" as="geometry">
            <mxPoint x="341" y="432" as="sourcePoint" />
            <mxPoint x="290" y="330" as="targetPoint" />
          </mxGeometry>
        </mxCell>
        <mxCell id="MHxuqxCIDy7DKhvqpXYc-59" style="rounded=0;orthogonalLoop=1;jettySize=auto;html=1;entryX=1;entryY=0.5;entryDx=0;entryDy=0;endArrow=blockThin;endFill=1;" edge="1" parent="1" source="MHxuqxCIDy7DKhvqpXYc-27" target="MHxuqxCIDy7DKhvqpXYc-6">
          <mxGeometry relative="1" as="geometry">
            <mxPoint x="344" y="441" as="sourcePoint" />
            <mxPoint x="290" y="260" as="targetPoint" />
          </mxGeometry>
        </mxCell>
        <mxCell id="MHxuqxCIDy7DKhvqpXYc-60" style="rounded=0;orthogonalLoop=1;jettySize=auto;html=1;entryX=1;entryY=0.5;entryDx=0;entryDy=0;endArrow=blockThin;endFill=1;exitX=0;exitY=0.5;exitDx=0;exitDy=0;" edge="1" parent="1" source="MHxuqxCIDy7DKhvqpXYc-8" target="MHxuqxCIDy7DKhvqpXYc-4">
          <mxGeometry relative="1" as="geometry">
            <mxPoint x="341" y="362" as="sourcePoint" />
            <mxPoint x="290" y="260" as="targetPoint" />
          </mxGeometry>
        </mxCell>
        <mxCell id="MHxuqxCIDy7DKhvqpXYc-62" style="rounded=0;orthogonalLoop=1;jettySize=auto;html=1;entryX=1;entryY=0.5;entryDx=0;entryDy=0;endArrow=blockThin;endFill=1;exitX=0;exitY=0.5;exitDx=0;exitDy=0;" edge="1" parent="1">
          <mxGeometry relative="1" as="geometry">
            <mxPoint x="240" y="99.76000000000002" as="sourcePoint" />
            <mxPoint x="200" y="99.76000000000002" as="targetPoint" />
          </mxGeometry>
        </mxCell>
        <mxCell id="MHxuqxCIDy7DKhvqpXYc-63" style="rounded=0;orthogonalLoop=1;jettySize=auto;html=1;entryX=1;entryY=0.5;entryDx=0;entryDy=0;endArrow=blockThin;endFill=1;exitX=0;exitY=0.5;exitDx=0;exitDy=0;" edge="1" parent="1">
          <mxGeometry relative="1" as="geometry">
            <mxPoint x="240" y="199.8" as="sourcePoint" />
            <mxPoint x="200" y="199.8" as="targetPoint" />
          </mxGeometry>
        </mxCell>
        <mxCell id="MHxuqxCIDy7DKhvqpXYc-64" style="rounded=0;orthogonalLoop=1;jettySize=auto;html=1;endArrow=blockThin;endFill=1;exitX=0;exitY=0.5;exitDx=0;exitDy=0;" edge="1" parent="1">
          <mxGeometry relative="1" as="geometry">
            <mxPoint x="240" y="149.76" as="sourcePoint" />
            <mxPoint x="200" y="150" as="targetPoint" />
          </mxGeometry>
        </mxCell>
        <mxCell id="MHxuqxCIDy7DKhvqpXYc-65" style="rounded=0;orthogonalLoop=1;jettySize=auto;html=1;entryX=1;entryY=0.5;entryDx=0;entryDy=0;endArrow=blockThin;endFill=1;" edge="1" parent="1" source="MHxuqxCIDy7DKhvqpXYc-8" target="MHxuqxCIDy7DKhvqpXYc-3">
          <mxGeometry relative="1" as="geometry">
            <mxPoint x="250" y="330" as="sourcePoint" />
            <mxPoint x="210" y="330" as="targetPoint" />
          </mxGeometry>
        </mxCell>
        <mxCell id="MHxuqxCIDy7DKhvqpXYc-66" style="rounded=0;orthogonalLoop=1;jettySize=auto;html=1;entryX=1;entryY=0.5;entryDx=0;entryDy=0;endArrow=blockThin;endFill=1;" edge="1" parent="1" source="MHxuqxCIDy7DKhvqpXYc-5" target="MHxuqxCIDy7DKhvqpXYc-3">
          <mxGeometry relative="1" as="geometry">
            <mxPoint x="250" y="109.76000000000002" as="sourcePoint" />
            <mxPoint x="210" y="109.76000000000002" as="targetPoint" />
          </mxGeometry>
        </mxCell>
        <mxCell id="MHxuqxCIDy7DKhvqpXYc-67" style="rounded=0;orthogonalLoop=1;jettySize=auto;html=1;entryX=1;entryY=0.5;entryDx=0;entryDy=0;endArrow=blockThin;endFill=1;" edge="1" parent="1" source="MHxuqxCIDy7DKhvqpXYc-6" target="MHxuqxCIDy7DKhvqpXYc-1">
          <mxGeometry relative="1" as="geometry">
            <mxPoint x="250" y="269.8" as="sourcePoint" />
            <mxPoint x="210" y="269.8" as="targetPoint" />
          </mxGeometry>
        </mxCell>
        <mxCell id="MHxuqxCIDy7DKhvqpXYc-68" style="rounded=0;orthogonalLoop=1;jettySize=auto;html=1;entryX=1;entryY=0.5;entryDx=0;entryDy=0;endArrow=blockThin;endFill=1;" edge="1" parent="1" source="MHxuqxCIDy7DKhvqpXYc-6" target="MHxuqxCIDy7DKhvqpXYc-3">
          <mxGeometry relative="1" as="geometry">
            <mxPoint x="250" y="179.76" as="sourcePoint" />
            <mxPoint x="210" y="179.76" as="targetPoint" />
          </mxGeometry>
        </mxCell>
        <mxCell id="MHxuqxCIDy7DKhvqpXYc-87" style="rounded=0;orthogonalLoop=1;jettySize=auto;html=1;entryX=1;entryY=0.5;entryDx=0;entryDy=0;endArrow=blockThin;endFill=1;" edge="1" parent="1" source="MHxuqxCIDy7DKhvqpXYc-5" target="MHxuqxCIDy7DKhvqpXYc-2">
          <mxGeometry relative="1" as="geometry">
            <mxPoint x="250" y="109.76000000000002" as="sourcePoint" />
            <mxPoint x="210" y="109.76000000000002" as="targetPoint" />
          </mxGeometry>
        </mxCell>
        <mxCell id="MHxuqxCIDy7DKhvqpXYc-88" style="rounded=0;orthogonalLoop=1;jettySize=auto;html=1;entryX=1;entryY=0.5;entryDx=0;entryDy=0;endArrow=blockThin;endFill=1;" edge="1" parent="1" source="MHxuqxCIDy7DKhvqpXYc-7" target="MHxuqxCIDy7DKhvqpXYc-2">
          <mxGeometry relative="1" as="geometry">
            <mxPoint x="263" y="119" as="sourcePoint" />
            <mxPoint x="210" y="260" as="targetPoint" />
          </mxGeometry>
        </mxCell>
        <mxCell id="MHxuqxCIDy7DKhvqpXYc-89" style="rounded=0;orthogonalLoop=1;jettySize=auto;html=1;entryX=1;entryY=0.5;entryDx=0;entryDy=0;endArrow=blockThin;endFill=1;" edge="1" parent="1" source="MHxuqxCIDy7DKhvqpXYc-7" target="MHxuqxCIDy7DKhvqpXYc-1">
          <mxGeometry relative="1" as="geometry">
            <mxPoint x="258" y="254" as="sourcePoint" />
            <mxPoint x="210" y="190" as="targetPoint" />
          </mxGeometry>
        </mxCell>
        <mxCell id="MHxuqxCIDy7DKhvqpXYc-90" style="rounded=0;orthogonalLoop=1;jettySize=auto;html=1;entryX=1;entryY=0.5;entryDx=0;entryDy=0;endArrow=blockThin;endFill=1;" edge="1" parent="1" source="MHxuqxCIDy7DKhvqpXYc-8" target="MHxuqxCIDy7DKhvqpXYc-2">
          <mxGeometry relative="1" as="geometry">
            <mxPoint x="258" y="324" as="sourcePoint" />
            <mxPoint x="210" y="260" as="targetPoint" />
          </mxGeometry>
        </mxCell>
        <mxCell id="MHxuqxCIDy7DKhvqpXYc-91" style="rounded=0;orthogonalLoop=1;jettySize=auto;html=1;entryX=1;entryY=0.5;entryDx=0;entryDy=0;endArrow=blockThin;endFill=1;exitX=0;exitY=0.5;exitDx=0;exitDy=0;" edge="1" parent="1">
          <mxGeometry relative="1" as="geometry">
            <mxPoint x="320" y="250.24" as="sourcePoint" />
            <mxPoint x="280" y="250.24" as="targetPoint" />
          </mxGeometry>
        </mxCell>
        <mxCell id="MHxuqxCIDy7DKhvqpXYc-92" style="rounded=0;orthogonalLoop=1;jettySize=auto;html=1;entryX=1;entryY=0.5;entryDx=0;entryDy=0;endArrow=blockThin;endFill=1;exitX=0;exitY=0.5;exitDx=0;exitDy=0;" edge="1" parent="1">
          <mxGeometry relative="1" as="geometry">
            <mxPoint x="320" y="100.00000000000001" as="sourcePoint" />
            <mxPoint x="280" y="100.00000000000001" as="targetPoint" />
          </mxGeometry>
        </mxCell>
        <mxCell id="MHxuqxCIDy7DKhvqpXYc-93" style="rounded=0;orthogonalLoop=1;jettySize=auto;html=1;entryX=1;entryY=0.5;entryDx=0;entryDy=0;endArrow=blockThin;endFill=1;exitX=0;exitY=0.5;exitDx=0;exitDy=0;" edge="1" parent="1">
          <mxGeometry relative="1" as="geometry">
            <mxPoint x="320" y="200.04000000000002" as="sourcePoint" />
            <mxPoint x="280" y="200.04000000000002" as="targetPoint" />
          </mxGeometry>
        </mxCell>
        <mxCell id="MHxuqxCIDy7DKhvqpXYc-94" style="rounded=0;orthogonalLoop=1;jettySize=auto;html=1;entryX=1;entryY=0.5;entryDx=0;entryDy=0;endArrow=blockThin;endFill=1;exitX=0;exitY=0.5;exitDx=0;exitDy=0;" edge="1" parent="1">
          <mxGeometry relative="1" as="geometry">
            <mxPoint x="320" y="150" as="sourcePoint" />
            <mxPoint x="280" y="150" as="targetPoint" />
          </mxGeometry>
        </mxCell>
        <mxCell id="MHxuqxCIDy7DKhvqpXYc-95" style="rounded=0;orthogonalLoop=1;jettySize=auto;html=1;entryX=1;entryY=0.5;entryDx=0;entryDy=0;endArrow=blockThin;endFill=1;" edge="1" parent="1" source="MHxuqxCIDy7DKhvqpXYc-12" target="MHxuqxCIDy7DKhvqpXYc-7">
          <mxGeometry relative="1" as="geometry">
            <mxPoint x="328" y="304.24" as="sourcePoint" />
            <mxPoint x="280" y="240.24" as="targetPoint" />
          </mxGeometry>
        </mxCell>
        <mxCell id="MHxuqxCIDy7DKhvqpXYc-96" style="rounded=0;orthogonalLoop=1;jettySize=auto;html=1;entryX=1;entryY=0.5;entryDx=0;entryDy=0;endArrow=blockThin;endFill=1;" edge="1" parent="1" target="MHxuqxCIDy7DKhvqpXYc-7">
          <mxGeometry relative="1" as="geometry">
            <mxPoint x="333" y="119.24" as="sourcePoint" />
            <mxPoint x="280" y="260.24" as="targetPoint" />
          </mxGeometry>
        </mxCell>
        <mxCell id="MHxuqxCIDy7DKhvqpXYc-97" style="rounded=0;orthogonalLoop=1;jettySize=auto;html=1;entryX=1;entryY=0.5;entryDx=0;entryDy=0;endArrow=blockThin;endFill=1;" edge="1" parent="1" source="MHxuqxCIDy7DKhvqpXYc-10">
          <mxGeometry relative="1" as="geometry">
            <mxPoint x="328" y="164.24" as="sourcePoint" />
            <mxPoint x="280" y="100.24" as="targetPoint" />
          </mxGeometry>
        </mxCell>
        <mxCell id="MHxuqxCIDy7DKhvqpXYc-98" style="rounded=0;orthogonalLoop=1;jettySize=auto;html=1;entryX=1;entryY=0.5;entryDx=0;entryDy=0;endArrow=blockThin;endFill=1;" edge="1" parent="1" source="MHxuqxCIDy7DKhvqpXYc-10" target="MHxuqxCIDy7DKhvqpXYc-7">
          <mxGeometry relative="1" as="geometry">
            <mxPoint x="328" y="186.24" as="sourcePoint" />
            <mxPoint x="280" y="250.24" as="targetPoint" />
          </mxGeometry>
        </mxCell>
        <mxCell id="MHxuqxCIDy7DKhvqpXYc-99" style="rounded=0;orthogonalLoop=1;jettySize=auto;html=1;entryX=1;entryY=0.5;entryDx=0;entryDy=0;endArrow=blockThin;endFill=1;" edge="1" parent="1" target="MHxuqxCIDy7DKhvqpXYc-6">
          <mxGeometry relative="1" as="geometry">
            <mxPoint x="328" y="116.24" as="sourcePoint" />
            <mxPoint x="280" y="180.24" as="targetPoint" />
          </mxGeometry>
        </mxCell>
        <mxCell id="MHxuqxCIDy7DKhvqpXYc-100" style="rounded=0;orthogonalLoop=1;jettySize=auto;html=1;entryX=1;entryY=0.5;entryDx=0;entryDy=0;endArrow=blockThin;endFill=1;" edge="1" parent="1" source="MHxuqxCIDy7DKhvqpXYc-11" target="MHxuqxCIDy7DKhvqpXYc-6">
          <mxGeometry relative="1" as="geometry">
            <mxPoint x="328" y="234.24" as="sourcePoint" />
            <mxPoint x="280" y="170.24" as="targetPoint" />
          </mxGeometry>
        </mxCell>
        <mxCell id="MHxuqxCIDy7DKhvqpXYc-101" style="rounded=0;orthogonalLoop=1;jettySize=auto;html=1;entryX=1;entryY=0.5;entryDx=0;entryDy=0;endArrow=blockThin;endFill=1;" edge="1" parent="1" source="MHxuqxCIDy7DKhvqpXYc-11">
          <mxGeometry relative="1" as="geometry">
            <mxPoint x="333" y="241.24" as="sourcePoint" />
            <mxPoint x="280" y="100.24" as="targetPoint" />
          </mxGeometry>
        </mxCell>
        <mxCell id="MHxuqxCIDy7DKhvqpXYc-102" style="rounded=0;orthogonalLoop=1;jettySize=auto;html=1;entryX=1;entryY=0.5;entryDx=0;entryDy=0;endArrow=blockThin;endFill=1;" edge="1" parent="1" source="MHxuqxCIDy7DKhvqpXYc-12" target="MHxuqxCIDy7DKhvqpXYc-6">
          <mxGeometry relative="1" as="geometry">
            <mxPoint x="333" y="311.24" as="sourcePoint" />
            <mxPoint x="280" y="170.24" as="targetPoint" />
          </mxGeometry>
        </mxCell>
        <mxCell id="MHxuqxCIDy7DKhvqpXYc-103" style="rounded=0;orthogonalLoop=1;jettySize=auto;html=1;entryX=1;entryY=0.5;entryDx=0;entryDy=0;endArrow=blockThin;endFill=1;exitX=0;exitY=0.5;exitDx=0;exitDy=0;" edge="1" parent="1">
          <mxGeometry relative="1" as="geometry">
            <mxPoint x="400" y="250.24" as="sourcePoint" />
            <mxPoint x="360" y="250.24" as="targetPoint" />
          </mxGeometry>
        </mxCell>
        <mxCell id="MHxuqxCIDy7DKhvqpXYc-104" style="rounded=0;orthogonalLoop=1;jettySize=auto;html=1;entryX=1;entryY=0.5;entryDx=0;entryDy=0;endArrow=blockThin;endFill=1;exitX=0;exitY=0.5;exitDx=0;exitDy=0;" edge="1" parent="1">
          <mxGeometry relative="1" as="geometry">
            <mxPoint x="400" y="100.00000000000001" as="sourcePoint" />
            <mxPoint x="360" y="100.00000000000001" as="targetPoint" />
          </mxGeometry>
        </mxCell>
        <mxCell id="MHxuqxCIDy7DKhvqpXYc-105" style="rounded=0;orthogonalLoop=1;jettySize=auto;html=1;entryX=1;entryY=0.5;entryDx=0;entryDy=0;endArrow=blockThin;endFill=1;exitX=0;exitY=0.5;exitDx=0;exitDy=0;" edge="1" parent="1">
          <mxGeometry relative="1" as="geometry">
            <mxPoint x="400" y="200.04000000000002" as="sourcePoint" />
            <mxPoint x="360" y="200.04000000000002" as="targetPoint" />
          </mxGeometry>
        </mxCell>
        <mxCell id="MHxuqxCIDy7DKhvqpXYc-106" style="rounded=0;orthogonalLoop=1;jettySize=auto;html=1;entryX=1;entryY=0.5;entryDx=0;entryDy=0;endArrow=blockThin;endFill=1;exitX=0;exitY=0.5;exitDx=0;exitDy=0;" edge="1" parent="1">
          <mxGeometry relative="1" as="geometry">
            <mxPoint x="400" y="150" as="sourcePoint" />
            <mxPoint x="360" y="150" as="targetPoint" />
          </mxGeometry>
        </mxCell>
        <mxCell id="MHxuqxCIDy7DKhvqpXYc-107" style="rounded=0;orthogonalLoop=1;jettySize=auto;html=1;entryX=1;entryY=0.5;entryDx=0;entryDy=0;endArrow=blockThin;endFill=1;" edge="1" parent="1" source="MHxuqxCIDy7DKhvqpXYc-16" target="MHxuqxCIDy7DKhvqpXYc-11">
          <mxGeometry relative="1" as="geometry">
            <mxPoint x="408" y="304.24" as="sourcePoint" />
            <mxPoint x="360" y="240.24" as="targetPoint" />
          </mxGeometry>
        </mxCell>
        <mxCell id="MHxuqxCIDy7DKhvqpXYc-108" style="rounded=0;orthogonalLoop=1;jettySize=auto;html=1;entryX=1;entryY=0.5;entryDx=0;entryDy=0;endArrow=blockThin;endFill=1;" edge="1" parent="1" target="MHxuqxCIDy7DKhvqpXYc-11">
          <mxGeometry relative="1" as="geometry">
            <mxPoint x="413" y="119.24000000000001" as="sourcePoint" />
            <mxPoint x="360" y="260.24" as="targetPoint" />
          </mxGeometry>
        </mxCell>
        <mxCell id="MHxuqxCIDy7DKhvqpXYc-109" style="rounded=0;orthogonalLoop=1;jettySize=auto;html=1;entryX=1;entryY=0.5;entryDx=0;entryDy=0;endArrow=blockThin;endFill=1;" edge="1" parent="1" source="MHxuqxCIDy7DKhvqpXYc-14">
          <mxGeometry relative="1" as="geometry">
            <mxPoint x="408" y="164.24" as="sourcePoint" />
            <mxPoint x="360" y="100.24" as="targetPoint" />
          </mxGeometry>
        </mxCell>
        <mxCell id="MHxuqxCIDy7DKhvqpXYc-110" style="rounded=0;orthogonalLoop=1;jettySize=auto;html=1;entryX=1;entryY=0.5;entryDx=0;entryDy=0;endArrow=blockThin;endFill=1;" edge="1" parent="1" source="MHxuqxCIDy7DKhvqpXYc-14" target="MHxuqxCIDy7DKhvqpXYc-11">
          <mxGeometry relative="1" as="geometry">
            <mxPoint x="408" y="186.24" as="sourcePoint" />
            <mxPoint x="360" y="250.24" as="targetPoint" />
          </mxGeometry>
        </mxCell>
        <mxCell id="MHxuqxCIDy7DKhvqpXYc-111" style="rounded=0;orthogonalLoop=1;jettySize=auto;html=1;entryX=1;entryY=0.5;entryDx=0;entryDy=0;endArrow=blockThin;endFill=1;" edge="1" parent="1" target="MHxuqxCIDy7DKhvqpXYc-10">
          <mxGeometry relative="1" as="geometry">
            <mxPoint x="408" y="116.24" as="sourcePoint" />
            <mxPoint x="360" y="180.24" as="targetPoint" />
          </mxGeometry>
        </mxCell>
        <mxCell id="MHxuqxCIDy7DKhvqpXYc-112" style="rounded=0;orthogonalLoop=1;jettySize=auto;html=1;entryX=1;entryY=0.5;entryDx=0;entryDy=0;endArrow=blockThin;endFill=1;" edge="1" parent="1" source="MHxuqxCIDy7DKhvqpXYc-15" target="MHxuqxCIDy7DKhvqpXYc-10">
          <mxGeometry relative="1" as="geometry">
            <mxPoint x="408" y="234.24" as="sourcePoint" />
            <mxPoint x="360" y="170.24" as="targetPoint" />
          </mxGeometry>
        </mxCell>
        <mxCell id="MHxuqxCIDy7DKhvqpXYc-113" style="rounded=0;orthogonalLoop=1;jettySize=auto;html=1;entryX=1;entryY=0.5;entryDx=0;entryDy=0;endArrow=blockThin;endFill=1;" edge="1" parent="1" source="MHxuqxCIDy7DKhvqpXYc-15">
          <mxGeometry relative="1" as="geometry">
            <mxPoint x="413" y="241.24" as="sourcePoint" />
            <mxPoint x="360" y="100.24" as="targetPoint" />
          </mxGeometry>
        </mxCell>
        <mxCell id="MHxuqxCIDy7DKhvqpXYc-114" style="rounded=0;orthogonalLoop=1;jettySize=auto;html=1;entryX=1;entryY=0.5;entryDx=0;entryDy=0;endArrow=blockThin;endFill=1;" edge="1" parent="1" source="MHxuqxCIDy7DKhvqpXYc-16" target="MHxuqxCIDy7DKhvqpXYc-10">
          <mxGeometry relative="1" as="geometry">
            <mxPoint x="413" y="311.24" as="sourcePoint" />
            <mxPoint x="360" y="170.24" as="targetPoint" />
          </mxGeometry>
        </mxCell>
        <mxCell id="MHxuqxCIDy7DKhvqpXYc-116" style="rounded=0;orthogonalLoop=1;jettySize=auto;html=1;entryX=1;entryY=0.5;entryDx=0;entryDy=0;endArrow=blockThin;endFill=1;exitX=0;exitY=0.5;exitDx=0;exitDy=0;" edge="1" parent="1">
          <mxGeometry relative="1" as="geometry">
            <mxPoint x="480" y="100.00000000000001" as="sourcePoint" />
            <mxPoint x="440" y="100.00000000000001" as="targetPoint" />
          </mxGeometry>
        </mxCell>
        <mxCell id="MHxuqxCIDy7DKhvqpXYc-117" style="rounded=0;orthogonalLoop=1;jettySize=auto;html=1;entryX=1;entryY=0.5;entryDx=0;entryDy=0;endArrow=blockThin;endFill=1;exitX=0;exitY=0.5;exitDx=0;exitDy=0;" edge="1" parent="1">
          <mxGeometry relative="1" as="geometry">
            <mxPoint x="480" y="200.04000000000002" as="sourcePoint" />
            <mxPoint x="440" y="200.04000000000002" as="targetPoint" />
          </mxGeometry>
        </mxCell>
        <mxCell id="MHxuqxCIDy7DKhvqpXYc-118" style="rounded=0;orthogonalLoop=1;jettySize=auto;html=1;entryX=1;entryY=0.5;entryDx=0;entryDy=0;endArrow=blockThin;endFill=1;exitX=0;exitY=0.5;exitDx=0;exitDy=0;" edge="1" parent="1">
          <mxGeometry relative="1" as="geometry">
            <mxPoint x="480" y="150" as="sourcePoint" />
            <mxPoint x="440" y="150" as="targetPoint" />
          </mxGeometry>
        </mxCell>
        <mxCell id="MHxuqxCIDy7DKhvqpXYc-120" style="rounded=0;orthogonalLoop=1;jettySize=auto;html=1;entryX=1;entryY=0.5;entryDx=0;entryDy=0;endArrow=blockThin;endFill=1;" edge="1" parent="1" target="MHxuqxCIDy7DKhvqpXYc-15">
          <mxGeometry relative="1" as="geometry">
            <mxPoint x="493" y="119.24000000000001" as="sourcePoint" />
            <mxPoint x="440" y="260.24" as="targetPoint" />
          </mxGeometry>
        </mxCell>
        <mxCell id="MHxuqxCIDy7DKhvqpXYc-121" style="rounded=0;orthogonalLoop=1;jettySize=auto;html=1;entryX=1;entryY=0.5;entryDx=0;entryDy=0;endArrow=blockThin;endFill=1;" edge="1" parent="1" source="MHxuqxCIDy7DKhvqpXYc-18">
          <mxGeometry relative="1" as="geometry">
            <mxPoint x="488" y="164.24" as="sourcePoint" />
            <mxPoint x="440" y="100.24" as="targetPoint" />
          </mxGeometry>
        </mxCell>
        <mxCell id="MHxuqxCIDy7DKhvqpXYc-122" style="rounded=0;orthogonalLoop=1;jettySize=auto;html=1;entryX=1;entryY=0.5;entryDx=0;entryDy=0;endArrow=blockThin;endFill=1;" edge="1" parent="1" source="MHxuqxCIDy7DKhvqpXYc-18" target="MHxuqxCIDy7DKhvqpXYc-15">
          <mxGeometry relative="1" as="geometry">
            <mxPoint x="488" y="186.24" as="sourcePoint" />
            <mxPoint x="440" y="250.24" as="targetPoint" />
          </mxGeometry>
        </mxCell>
        <mxCell id="MHxuqxCIDy7DKhvqpXYc-123" style="rounded=0;orthogonalLoop=1;jettySize=auto;html=1;entryX=1;entryY=0.5;entryDx=0;entryDy=0;endArrow=blockThin;endFill=1;" edge="1" parent="1" target="MHxuqxCIDy7DKhvqpXYc-14">
          <mxGeometry relative="1" as="geometry">
            <mxPoint x="488" y="116.24" as="sourcePoint" />
            <mxPoint x="440" y="180.24" as="targetPoint" />
          </mxGeometry>
        </mxCell>
        <mxCell id="MHxuqxCIDy7DKhvqpXYc-124" style="rounded=0;orthogonalLoop=1;jettySize=auto;html=1;entryX=1;entryY=0.5;entryDx=0;entryDy=0;endArrow=blockThin;endFill=1;" edge="1" parent="1" source="MHxuqxCIDy7DKhvqpXYc-19" target="MHxuqxCIDy7DKhvqpXYc-14">
          <mxGeometry relative="1" as="geometry">
            <mxPoint x="488" y="234.24" as="sourcePoint" />
            <mxPoint x="440" y="170.24" as="targetPoint" />
          </mxGeometry>
        </mxCell>
        <mxCell id="MHxuqxCIDy7DKhvqpXYc-125" style="rounded=0;orthogonalLoop=1;jettySize=auto;html=1;entryX=1;entryY=0.5;entryDx=0;entryDy=0;endArrow=blockThin;endFill=1;" edge="1" parent="1" source="MHxuqxCIDy7DKhvqpXYc-19">
          <mxGeometry relative="1" as="geometry">
            <mxPoint x="493" y="241.24" as="sourcePoint" />
            <mxPoint x="440" y="100.24" as="targetPoint" />
          </mxGeometry>
        </mxCell>
        <mxCell id="MHxuqxCIDy7DKhvqpXYc-128" style="rounded=0;orthogonalLoop=1;jettySize=auto;html=1;entryX=1;entryY=0.5;entryDx=0;entryDy=0;endArrow=blockThin;endFill=1;exitX=0;exitY=0.5;exitDx=0;exitDy=0;" edge="1" parent="1">
          <mxGeometry relative="1" as="geometry">
            <mxPoint x="560" y="100.00000000000001" as="sourcePoint" />
            <mxPoint x="520" y="100.00000000000001" as="targetPoint" />
          </mxGeometry>
        </mxCell>
        <mxCell id="MHxuqxCIDy7DKhvqpXYc-129" style="rounded=0;orthogonalLoop=1;jettySize=auto;html=1;entryX=1;entryY=0.5;entryDx=0;entryDy=0;endArrow=blockThin;endFill=1;exitX=0;exitY=0.5;exitDx=0;exitDy=0;" edge="1" parent="1">
          <mxGeometry relative="1" as="geometry">
            <mxPoint x="560" y="200.04000000000002" as="sourcePoint" />
            <mxPoint x="520" y="200.04000000000002" as="targetPoint" />
          </mxGeometry>
        </mxCell>
        <mxCell id="MHxuqxCIDy7DKhvqpXYc-130" style="rounded=0;orthogonalLoop=1;jettySize=auto;html=1;entryX=1;entryY=0.5;entryDx=0;entryDy=0;endArrow=blockThin;endFill=1;exitX=0;exitY=0.5;exitDx=0;exitDy=0;" edge="1" parent="1">
          <mxGeometry relative="1" as="geometry">
            <mxPoint x="560" y="150" as="sourcePoint" />
            <mxPoint x="520" y="150" as="targetPoint" />
          </mxGeometry>
        </mxCell>
        <mxCell id="MHxuqxCIDy7DKhvqpXYc-132" style="rounded=0;orthogonalLoop=1;jettySize=auto;html=1;endArrow=blockThin;endFill=1;entryX=1;entryY=0.5;entryDx=0;entryDy=0;" edge="1" parent="1" target="MHxuqxCIDy7DKhvqpXYc-19">
          <mxGeometry relative="1" as="geometry">
            <mxPoint x="573" y="119.24000000000001" as="sourcePoint" />
            <mxPoint x="520" y="260" as="targetPoint" />
          </mxGeometry>
        </mxCell>
        <mxCell id="MHxuqxCIDy7DKhvqpXYc-133" style="rounded=0;orthogonalLoop=1;jettySize=auto;html=1;entryX=1;entryY=0.5;entryDx=0;entryDy=0;endArrow=blockThin;endFill=1;" edge="1" parent="1" source="MHxuqxCIDy7DKhvqpXYc-22">
          <mxGeometry relative="1" as="geometry">
            <mxPoint x="568" y="164.24" as="sourcePoint" />
            <mxPoint x="520" y="100.24" as="targetPoint" />
          </mxGeometry>
        </mxCell>
        <mxCell id="MHxuqxCIDy7DKhvqpXYc-134" style="rounded=0;orthogonalLoop=1;jettySize=auto;html=1;entryX=1;entryY=0.5;entryDx=0;entryDy=0;endArrow=blockThin;endFill=1;" edge="1" parent="1" source="MHxuqxCIDy7DKhvqpXYc-22" target="MHxuqxCIDy7DKhvqpXYc-19">
          <mxGeometry relative="1" as="geometry">
            <mxPoint x="568" y="186.24" as="sourcePoint" />
            <mxPoint x="520" y="250.24" as="targetPoint" />
          </mxGeometry>
        </mxCell>
        <mxCell id="MHxuqxCIDy7DKhvqpXYc-135" style="rounded=0;orthogonalLoop=1;jettySize=auto;html=1;entryX=1;entryY=0.5;entryDx=0;entryDy=0;endArrow=blockThin;endFill=1;" edge="1" parent="1" target="MHxuqxCIDy7DKhvqpXYc-18">
          <mxGeometry relative="1" as="geometry">
            <mxPoint x="568" y="116.24" as="sourcePoint" />
            <mxPoint x="520" y="180.24" as="targetPoint" />
          </mxGeometry>
        </mxCell>
        <mxCell id="MHxuqxCIDy7DKhvqpXYc-136" style="rounded=0;orthogonalLoop=1;jettySize=auto;html=1;endArrow=blockThin;endFill=1;entryX=1;entryY=0.5;entryDx=0;entryDy=0;" edge="1" parent="1" source="MHxuqxCIDy7DKhvqpXYc-23" target="MHxuqxCIDy7DKhvqpXYc-18">
          <mxGeometry relative="1" as="geometry">
            <mxPoint x="568" y="234.24" as="sourcePoint" />
            <mxPoint x="520" y="170" as="targetPoint" />
          </mxGeometry>
        </mxCell>
        <mxCell id="MHxuqxCIDy7DKhvqpXYc-137" style="rounded=0;orthogonalLoop=1;jettySize=auto;html=1;entryX=1;entryY=0.5;entryDx=0;entryDy=0;endArrow=blockThin;endFill=1;" edge="1" parent="1" source="MHxuqxCIDy7DKhvqpXYc-23">
          <mxGeometry relative="1" as="geometry">
            <mxPoint x="573" y="241.24" as="sourcePoint" />
            <mxPoint x="520" y="100.24" as="targetPoint" />
          </mxGeometry>
        </mxCell>
        <mxCell id="MHxuqxCIDy7DKhvqpXYc-28" style="edgeStyle=orthogonalEdgeStyle;rounded=0;orthogonalLoop=1;jettySize=auto;html=1;entryX=1;entryY=0.5;entryDx=0;entryDy=0;endArrow=blockThin;endFill=1;fillColor=#ffe6cc;strokeColor=#d79b00;strokeWidth=3;" edge="1" parent="1" source="MHxuqxCIDy7DKhvqpXYc-19" target="MHxuqxCIDy7DKhvqpXYc-25">
          <mxGeometry relative="1" as="geometry">
            <mxPoint x="490" y="250" as="sourcePoint" />
            <mxPoint x="210" y="410" as="targetPoint" />
            <Array as="points">
              <mxPoint x="510" y="350" />
            </Array>
          </mxGeometry>
        </mxCell>
        <mxCell id="MHxuqxCIDy7DKhvqpXYc-139" value="" style="edgeStyle=orthogonalEdgeStyle;rounded=0;orthogonalLoop=1;jettySize=auto;html=1;entryX=1;entryY=0.5;entryDx=0;entryDy=0;endArrow=blockThin;endFill=1;fillColor=#ffe6cc;strokeColor=#d79b00;strokeWidth=3;" edge="1" parent="1" source="MHxuqxCIDy7DKhvqpXYc-19" target="MHxuqxCIDy7DKhvqpXYc-27">
          <mxGeometry relative="1" as="geometry">
            <mxPoint x="490" y="257" as="sourcePoint" />
            <mxPoint x="200" y="400" as="targetPoint" />
            <Array as="points">
              <mxPoint x="490" y="300" />
            </Array>
          </mxGeometry>
        </mxCell>
        <mxCell id="MHxuqxCIDy7DKhvqpXYc-27" value="" style="ellipse;whiteSpace=wrap;html=1;aspect=fixed;fillColor=#ffe6cc;strokeColor=#d79b00;" vertex="1" parent="1">
          <mxGeometry x="320" y="280" width="40" height="40" as="geometry" />
        </mxCell>
        <mxCell id="MHxuqxCIDy7DKhvqpXYc-140" value="&lt;b&gt;&lt;font style=&quot;font-size: 16px;&quot;&gt;core 1&lt;/font&gt;&lt;/b&gt;" style="text;html=1;align=center;verticalAlign=middle;whiteSpace=wrap;rounded=0;" vertex="1" parent="1">
          <mxGeometry x="80" y="80" width="80" height="40" as="geometry" />
        </mxCell>
        <mxCell id="MHxuqxCIDy7DKhvqpXYc-141" value="&lt;b&gt;&lt;font style=&quot;font-size: 16px;&quot;&gt;core 2&lt;/font&gt;&lt;/b&gt;" style="text;html=1;align=center;verticalAlign=middle;whiteSpace=wrap;rounded=0;" vertex="1" parent="1">
          <mxGeometry x="80" y="130" width="80" height="40" as="geometry" />
        </mxCell>
        <mxCell id="MHxuqxCIDy7DKhvqpXYc-142" value="&lt;b&gt;&lt;font style=&quot;font-size: 16px;&quot;&gt;core 3&lt;/font&gt;&lt;/b&gt;" style="text;html=1;align=center;verticalAlign=middle;whiteSpace=wrap;rounded=0;" vertex="1" parent="1">
          <mxGeometry x="80" y="180" width="80" height="40" as="geometry" />
        </mxCell>
        <mxCell id="MHxuqxCIDy7DKhvqpXYc-143" value="&lt;b&gt;&lt;font style=&quot;font-size: 16px;&quot;&gt;core 4&lt;/font&gt;&lt;/b&gt;" style="text;html=1;align=center;verticalAlign=middle;whiteSpace=wrap;rounded=0;" vertex="1" parent="1">
          <mxGeometry x="80" y="230" width="80" height="40" as="geometry" />
        </mxCell>
        <mxCell id="MHxuqxCIDy7DKhvqpXYc-144" value="&lt;b&gt;&lt;font style=&quot;font-size: 16px;&quot;&gt;aux i&lt;/font&gt;&lt;/b&gt;" style="text;html=1;align=center;verticalAlign=middle;whiteSpace=wrap;rounded=0;" vertex="1" parent="1">
          <mxGeometry x="80" y="280" width="80" height="40" as="geometry" />
        </mxCell>
        <mxCell id="MHxuqxCIDy7DKhvqpXYc-145" value="&lt;b&gt;&lt;font style=&quot;font-size: 16px;&quot;&gt;aux k&lt;/font&gt;&lt;/b&gt;" style="text;html=1;align=center;verticalAlign=middle;whiteSpace=wrap;rounded=0;" vertex="1" parent="1">
          <mxGeometry x="80" y="330" width="80" height="40" as="geometry" />
        </mxCell>
        <mxCell id="MHxuqxCIDy7DKhvqpXYc-150" value="&lt;b&gt;&lt;font style=&quot;font-size: 16px;&quot;&gt;R&lt;/font&gt;&lt;/b&gt;" style="text;html=1;align=center;verticalAlign=middle;whiteSpace=wrap;rounded=0;" vertex="1" parent="1">
          <mxGeometry x="140" y="40" width="80" height="40" as="geometry" />
        </mxCell>
        <mxCell id="MHxuqxCIDy7DKhvqpXYc-152" value="&lt;b&gt;&lt;font style=&quot;font-size: 16px;&quot;&gt;R+2&lt;/font&gt;&lt;/b&gt;" style="text;html=1;align=center;verticalAlign=middle;whiteSpace=wrap;rounded=0;" vertex="1" parent="1">
          <mxGeometry x="300" y="40" width="80" height="40" as="geometry" />
        </mxCell>
        <mxCell id="MHxuqxCIDy7DKhvqpXYc-154" value="&lt;b&gt;&lt;font style=&quot;font-size: 16px;&quot;&gt;R+4&lt;/font&gt;&lt;/b&gt;" style="text;html=1;align=center;verticalAlign=middle;whiteSpace=wrap;rounded=0;" vertex="1" parent="1">
          <mxGeometry x="460" y="40" width="80" height="40" as="geometry" />
        </mxCell>
        <mxCell id="MHxuqxCIDy7DKhvqpXYc-12" value="" style="ellipse;whiteSpace=wrap;html=1;aspect=fixed;" vertex="1" parent="1">
          <mxGeometry x="320" y="230" width="40" height="40" as="geometry" />
        </mxCell>
      </root>
    </mxGraphModel>
  </diagram>
</mxfile>
